<svg id="Group_103" data-name="Group 103" xmlns="http://www.w3.org/2000/svg" width="17.419" height="20.288" viewBox="0 0 17.419 20.288">
  <path id="Path_171" data-name="Path 171" d="M5.175,15.144a5.279,5.279,0,0,1,1.947.41c.384.1.751.256,1.144.376a3.378,3.378,0,0,0,2.05-.171,10.85,10.85,0,0,1,1.452-.495,4.651,4.651,0,0,1,4.065.939,4.174,4.174,0,0,1,.905.871c.1.12.1.136-.034.222a4.2,4.2,0,0,0-2.118,3.347,4.366,4.366,0,0,0,1.247,3.569,4.427,4.427,0,0,0,1.452,1.008c.154.051.162.085.094.221a14.72,14.72,0,0,1-2.451,3.911,4.78,4.78,0,0,1-1.213,1.007,2.414,2.414,0,0,1-2.263.086c-.316-.12-.615-.29-.939-.393a4.32,4.32,0,0,0-3.134.136,7.867,7.867,0,0,1-.811.324,2.67,2.67,0,0,1-2.69-.495A6.148,6.148,0,0,1,2.6,28.637a13.438,13.438,0,0,1-2-3.792,11.644,11.644,0,0,1-.589-3.007A7.108,7.108,0,0,1,.5,18.56a5.535,5.535,0,0,1,3.664-3.3,3.5,3.5,0,0,1,1.016-.12" transform="translate(0 -10.4)" fill="#624a9d" fill-rule="evenodd"/>
  <path id="Path_172" data-name="Path 172" d="M30.206.918a4.478,4.478,0,0,1-.794,2.511,4.294,4.294,0,0,1-2.306,1.759,2.713,2.713,0,0,1-.905.136c-.128,0-.171-.034-.179-.17A3.564,3.564,0,0,1,26.4,3.189,4.775,4.775,0,0,1,29.25.645a2.557,2.557,0,0,1,.8-.171c.111-.052.136.052.136.136a1.424,1.424,0,0,1,.017.308" transform="translate(-17.611 -0.46)" fill="#624a9d" fill-rule="evenodd"/>
</svg>
