<svg xmlns="http://www.w3.org/2000/svg" width="16.813" height="16.813" viewBox="0 0 16.813 16.813">
  <path id="Path_173" data-name="Path 173" d="M85.8,8.406c0,.143,0,.29-.013.433s-.017.282-.029.42v.013c-.017.139-.034.278-.055.412a8.386,8.386,0,0,1-2.606,4.9.409.409,0,0,1-.038.034,8.411,8.411,0,1,1,.059-12.353L80.735,4.64a5.041,5.041,0,1,0-3.346,8.81,4.989,4.989,0,0,0,3.035-1.021,2.912,2.912,0,0,0,.282-.231,3.044,3.044,0,0,0,.269-.252,4.092,4.092,0,0,0,.286-.319c.067-.076.13-.156.189-.235.071-.1.143-.2.206-.3a5,5,0,0,0,.483-1H77.39V6.759h8.242A8.526,8.526,0,0,1,85.8,8.406" transform="translate(-68.983)" fill="#624a9d"/>
</svg>
