<svg id="Group_88" data-name="Group 88" xmlns="http://www.w3.org/2000/svg" xmlns:xlink="http://www.w3.org/1999/xlink" width="13.242" height="16.445" viewBox="0 0 13.242 16.445">
  <defs>
    <clipPath id="clip-path">
      <rect id="Rectangle_58" data-name="Rectangle 58" width="13.242" height="16.445" fill="#515151"/>
    </clipPath>
  </defs>
  <g id="Group_87" data-name="Group 87" clip-path="url(#clip-path)">
    <path id="Path_122" data-name="Path 122" d="M21.472,58.407h-1V57.151a4.186,4.186,0,0,0-8.372,0v1.256h-1a1.429,1.429,0,0,0-1.426,1.424v8.145A1.432,1.432,0,0,0,11.1,69.412H21.472a1.437,1.437,0,0,0,1.441-1.436V59.831a1.434,1.434,0,0,0-1.441-1.424m-7.48-1.256a2.292,2.292,0,1,1,4.584,0v1.256H13.992Zm3.067,8.492v2.081a.156.156,0,0,1-.162.152h-1a.151.151,0,0,1-.148-.152V65.642a1.828,1.828,0,1,1,1.31,0" transform="translate(-9.671 -52.967)" fill="#515151"/>
  </g>
</svg>
