<svg xmlns="http://www.w3.org/2000/svg" width="69.982" height="73.981" viewBox="0 0 69.982 73.981">
  <g id="Group_77" data-name="Group 77" transform="translate(-141.389 -329.849)">
    <path id="Path_114" data-name="Path 114" d="M175.79,32.418l-9.774-15.059a11.437,11.437,0,1,1,19.551-.005l-.326.521Zm0-27.236a6.242,6.242,0,0,0-5.346,9.485l.164.27,5.182,7.972,5.344-8.242a6.241,6.241,0,0,0-5.344-9.485" transform="translate(0.59 329.849)" fill="#f16623"/>
    <path id="Path_115" data-name="Path 115" d="M165.215,136.954h6.156l4.872-7.6,4.872,7.6h6.156L176.243,119.76Z" transform="translate(0.136 266.876)" fill="#70d44b"/>
    <path id="Path_116" data-name="Path 116" d="M181.137,104.864h-8L149.671,68.273,126.2,104.864h-8l-3.525,5.017h14.46l20.531-32.01,20.531,32.01h14.46Z" transform="translate(26.709 293.95)" fill="#70d44b"/>
  </g>
</svg>
