<svg id="Group_76" data-name="Group 76" xmlns="http://www.w3.org/2000/svg" xmlns:xlink="http://www.w3.org/1999/xlink" width="235.404" height="152.506" viewBox="0 0 235.404 152.506">
  <defs>
    <clipPath id="clip-path">
      <rect id="Rectangle_52" data-name="Rectangle 52" width="235.404" height="152.506" fill="none"/>
    </clipPath>
  </defs>
  <path id="Path_108" data-name="Path 108" d="M0,191.656v5.618H10.393v27.151h6.179V197.274H26.964v-5.618Z" transform="translate(0 -71.966)" fill="#fff"/>
  <rect id="Rectangle_51" data-name="Rectangle 51" width="6.132" height="32.77" transform="translate(37.307 119.689)" fill="#fff"/>
  <g id="Group_75" data-name="Group 75">
    <g id="Group_74" data-name="Group 74" clip-path="url(#clip-path)">
      <path id="Path_109" data-name="Path 109" d="M118.443,224.4h-7.349l-9.55-10.954H95.6V224.4H89.42V191.582c5.2,0,10.392.046,15.589.046,7.724.047,11.8,5.2,11.8,10.861,0,4.494-2.06,9.034-8.285,10.3l9.923,11.188ZM95.6,197.386v10.486h9.41c3.932,0,5.617-2.622,5.617-5.243s-1.732-5.243-5.617-5.243Z" transform="translate(-33.577 -71.939)" fill="#fff"/>
      <path id="Path_110" data-name="Path 110" d="M172.789,224.5V211.252h-16.1V224.5h-6.179v-32.77h6.179v13.81h16.1v-13.81h6.133V224.5Z" transform="translate(-56.515 -71.995)" fill="#fff"/>
      <path id="Path_111" data-name="Path 111" d="M228.464,204.228l-11.375,20.2h-6.694l18.069-32.77,18.069,32.77h-6.741Z" transform="translate(-79.003 -71.966)" fill="#fff"/>
      <path id="Path_112" data-name="Path 112" d="M290.178,191.656v27.058h16.853v5.711H284v-32.77Z" transform="translate(-106.641 -71.966)" fill="#fff"/>
      <path id="Path_113" data-name="Path 113" d="M341.655,205.185l8.707-13.529h7.444v.281L344.745,210.9v13.529h-6.179V210.9l-12.592-18.959v-.281h7.35Z" transform="translate(-122.402 -71.966)" fill="#fff"/>
      <path id="Path_114" data-name="Path 114" d="M179.416,42.7,166.543,22.862a15.063,15.063,0,1,1,25.749-.007l-.429.686Zm0-35.871a8.221,8.221,0,0,0-7.041,12.493l.216.355,6.825,10.5,7.039-10.854a8.22,8.22,0,0,0-7.039-12.493" transform="translate(-61.714)" fill="#f16623"/>
      <path id="Path_115" data-name="Path 115" d="M165.215,142.4h8.108l6.416-10,6.417,10h8.108L179.739,119.76Z" transform="translate(-62.038 -44.97)" fill="#70d44b"/>
      <path id="Path_116" data-name="Path 116" d="M202.206,116.464H191.673L160.764,68.273l-30.909,48.192H119.322l-4.642,6.607h19.044l27.04-42.158,27.04,42.158h19.045Z" transform="translate(-43.062 -25.636)" fill="#70d44b"/>
      <path id="Path_117" data-name="Path 117" d="M257.672,132.614a3.087,3.087,0,1,0,.9,2.169,2.959,2.959,0,0,0-.9-2.169m-.387,3.972a2.425,2.425,0,0,1-1.784.753,2.548,2.548,0,0,1-2.543-2.557,2.475,2.475,0,0,1,.741-1.81,2.527,2.527,0,0,1,3.586,0,2.562,2.562,0,0,1,0,3.613" transform="translate(-94.784 -49.459)" fill="#70d44b"/>
      <path id="Path_118" data-name="Path 118" d="M257.271,135.656v-.027a.768.768,0,0,0,.773-.83.85.85,0,0,0-.325-.767,2.089,2.089,0,0,0-1.1-.214q-1.009,0-1.479.042v3.371h.733v-1.34h.733a.474.474,0,0,1,.483.318l.319,1.022h.774l-.36-1.05a.632.632,0,0,0-.551-.525m-.664-.277h-.733V134.37h.733a1.1,1.1,0,0,1,.56.1c.1.064.141.2.132.4a.431.431,0,0,1-.132.393,1.1,1.1,0,0,1-.56.117" transform="translate(-95.805 -50.248)" fill="#70d44b"/>
    </g>
  </g>
</svg>
