<svg xmlns="http://www.w3.org/2000/svg" width="20.472" height="16.772" viewBox="0 0 20.472 16.772">
  <path id="Path_170" data-name="Path 170" d="M146.552,15.6a8.931,8.931,0,0,0,4.406-.754,7.69,7.69,0,0,0,1.767-1.045,4.289,4.289,0,0,1-3.84-2.7c-.094-.244-.094-.244.173-.22a3.387,3.387,0,0,0,1.547-.11,5.319,5.319,0,0,1-1.013-.377,4.227,4.227,0,0,1-2.278-3.6c-.023-.2.031-.212.2-.126a3.956,3.956,0,0,0,1.665.432,8.714,8.714,0,0,1-.723-.644,4.289,4.289,0,0,1-.66-4.783c.1-.2.149-.2.3-.024a11.946,11.946,0,0,0,7.343,4.1c.315.047.636.063.958.11.2.039.228-.063.2-.228a4.231,4.231,0,0,1,7.083-3.785.4.4,0,0,0,.448.11,8.558,8.558,0,0,0,2.238-.872,1.193,1.193,0,0,0,.173-.1,4.328,4.328,0,0,1-1.783,2.325,8.408,8.408,0,0,0,2.262-.6c.023.11-.047.173-.095.236a8.377,8.377,0,0,1-1.743,1.791.334.334,0,0,0-.165.345,12.285,12.285,0,0,1-2.929,8.247,11.2,11.2,0,0,1-7.037,3.958,12.119,12.119,0,0,1-8.4-1.634.231.231,0,0,0-.094-.055" transform="translate(-146.552 -0.677)" fill="#624a9d" fill-rule="evenodd"/>
</svg>
